<?xml version="1.0" encoding="UTF-8"?>
<svg xmlns="http://www.w3.org/2000/svg" viewBox="0 0 512 512" width="512" height="512">
  <rect width="512" height="512" fill="#7ff0eb" rx="64"/>
  <!--
    Corvus corvus — official RaBe mascot bird from rabe-artwork/logos/logo.svg
    Only the bird silhouette (path14 white eye-ring + path16 body), no text.
    Source: https://github.com/radiorabe/rabe-artwork/blob/main/logos/logo.svg

    Coordinate mapping:
      The original logo uses an inner coordinate space (~20,000 × 20,000 units).
      g#g12 applies scale(0.049946) → shrinks to ~1,000 × 1,000.
      g#g10 applies matrix(1.25 0 0 -1.25 0 219.37) → scales 1.25× and flips the
      y-axis so the logo fits in a 246.618 × 219.375 pt viewBox.
      The bird occupies x≈127–246 / y≈14–176 of that viewBox; the remaining area
      is text (RaBe, RADIO 95.6 MHz) which is intentionally excluded here.
      The nested <svg> viewBox="127 14 119 162" crops to just the bird and
      x="91" y="32" width="330" height="448" centres it in the 512 × 512 icon.
  -->
  <svg x="91" y="32" width="330" height="448" viewBox="127 14 119 162">
    <!-- g#g10 + g#g12 transforms preserved verbatim from the source logo -->
    <g transform="matrix(1.25 0 0 -1.25 0 219.37)">
      <g transform="scale(0.049946)">
        <!-- path14: white eye-ring highlight -->
        <path data-source-path="path14" d="m2147.6 2938.9 21.22 246.51 181.2 57.13 195.9 57.14 253.03 48.97 124.07-50.61-32.65-32.64-427.71-208.96-315.06-117.54" fill="#fff"/>
        <!-- path16: Corvus body silhouette -->
        <path data-source-path="path16" fill="#231f20" d="m2682 1431.6c-21.82 4.46-45.01 6.9-69.45 6.9-12.9 0-25.42-0.8-37.72-1.99l-13.33 104.14 35.46 219.4 41.37 53.34c20.2-4.22 44.43-8.06 73.49-10.96l5.82-28 13.48-64.79zm29.67-425.64h-198.4v115c0 75.41 37.63 115.13 99.2 115.13 61.47 0 99.12-39.72 99.12-115.13zm-172.17 2225.3 0.16 0.37 49.03 47.88-36.07-7.22 1.85 21.83s212.05 45.72 246.27 43.34c34.2-2.31 115.3-40.39 115.3-40.39s-78.56-6.38-131.78-18.12c-53.2-11.81-74.52-28.54-139.82-54.44-65.36-25.86-121.57-49.08-104.94 6.75zm-68.86-30.86-38.98-14.91c-7.99 4.33-13.88 12.29-14.61 21.91-0.14 1.05-0.14 1.87-0.14 2.57 0 14.16 10.8 26.28 25.18 27.54 0.97 0.15 1.87 0.15 2.61 0.15 14.08 0 26.31-10.81 27.59-25.27 0-0.85 0.13-1.71 0.13-2.53 0-3.32-0.66-6.48-1.78-9.46zm-190.1 47.6c-25.13 34.51-60.6 53.96-106.74 47.44-1.57 4.44-3.06 8.91-4.55 13.31-15.28 45.01-26.68 91.45-26.3 114.55-0.08 3.65 0.22 6.56 0.59 8.35 0.3 1.86 0.53 2.23 0.45 2.27 0.98 1.83 2.46 4.36 11.03 7.76 8.2 3.09 21.91 5.28 38.31 5.21 48.09 0.3 117.01-17.81 155.7-35.03 10.5-4.62 18.78-12.56 26.52-25.31 11.49-18.85 19.01-47.62 23.78-75.12 0.84-4.48 1.5-8.72 2.16-13.12-42.41-12.34-82.8-26.42-120.95-50.31zm-9.85-159.8c-14.76-49.86-54.84-69.54-64.39-68.63-9.54 0.85-0.46 7.18-0.46 7.18 9.04 6.49 30.19 36.82 39.8 68.28 9.61 31.41 9.33 81.57 9.33 88.5 0 5.63 1.34 10.54 6.41 1.42 4.83-8.72 23.09-49.53 9.31-96.75zm1635.2-1452.4-901.09 697.21c22.36-7.98 46.8-16.39 73.78-25.04-14.98 47.56-47.63 96.96-89.36 145.04 17.59-6.15 36.29-12.52 56.51-19.01-56.88 180.74-367.6 387.04-469.86 450.92l-18.34 195.28c25.57 11.63 185.36 84.44 165.02 76.39 38.53 17.29 162.48 77.33 224.49 148.1-113.88 51.05-144.29 59.99-192.52 50.68-44.94-8.64-197.89-35.37-219.27-39.09-1.86 1.6-19.23 15.16-57.98 3.61-3.66-1.12-7.32-2.12-10.89-3.16-3.65 21.9-8.8 46.99-17.8 71.54-12.23 32.84-33.33 67.57-72.68 84.93-47.93 20.72-119.71 40.36-182.53 40.66-21.54-0.04-42.26-2.27-61.64-9.43-19.15-6.93-38.46-20.57-48.45-42.41-6.03-13.22-7.15-25.79-7.23-38.68 0.45-43.52 16.92-99.16 35.47-152.12-48.66-34.32-64.22-97.04-46.79-163.34 9.46-35.99 27.05-67.11 50.76-89.25-15.59-41.1-30.26-88.5-44.05-143.89-103.53-416.89 7.53-687.4 191.1-857.52 58.88-54.56 126.17-94.35 186.77-122.67 6.86-17.68 16.33-38.92 29.6-62.7 19.81-35.62 45.67-60.84 65.8-76.83l-40.17-248.45-121.41-163.89c-10.06-11.41-19.15-23.58-27.14-36.58l-2.38-3.23 0.6 0.16c-1.87-3.13-3.81-6.19-5.52-9.36-27.8-51.62-37.71-123-37.71-204.31v-331.33c0-81.289 9.91-152.79 37.71-204.36 47.55-87.281 140.79-144.82 263.85-144.82 93.15 0 166.57 33.75 220.17 89.301 51.57 53.59 81.3 130.95 81.3 214.26h-202.35c-3.94-43.684-21.83-101.22-99.12-101.22-61.57 0-99.2 35.73-99.2 99.223v136.94h400.67v277.75c0 67.46-16.84 129.1-47.98 179.51l-120.53 194.38 35.77 202.53 38.7 48.57 37.47 46.91c12.82 0.15 26.09 0.46 40.03 0.93 149.82 5.14 298.94-39.9 428.34-96.12 10.06-5.29 377.79-197.45 403.27-214.81 25.81-17.6 90.73-15.16 71.05 22.75 70.2-11.06 116.35 3.92 93.9 48.24 119.11-0.25 11.86 77.83 11.86 77.83"/>
      </g>
    </g>
  </svg>
</svg>
